<?xml version="1.0" encoding="UTF-8" standalone="no"?><!DOCTYPE svg PUBLIC "-//W3C//DTD SVG 1.1//EN" "http://www.w3.org/Graphics/SVG/1.1/DTD/svg11.dtd"><svg width="100%" height="100%" viewBox="0 0 600 382" version="1.1" xmlns="http://www.w3.org/2000/svg" xmlns:xlink="http://www.w3.org/1999/xlink" xml:space="preserve" style="fill-rule:evenodd;clip-rule:evenodd;stroke-linejoin:round;stroke-miterlimit:1.41421;"><rect x="-15" y="-17.336" width="670.244" height="571.324" style="fill:#d6d6d6;"/><path d="M289.825,138.038c2.931,0 5.311,2.38 5.311,5.311l0,8.177l68.768,0c7.179,0 13.007,5.828 13.007,13.007l0,72.474c0,7.179 -5.828,13.008 -13.007,13.008l-124.319,0c-7.179,0 -13.007,-5.829 -13.007,-13.008l0,-72.474c0,-7.179 5.828,-13.007 13.007,-13.007l5.949,0l0,-8.177c0,-2.931 2.379,-5.311 5.311,-5.311l38.98,0Z" style="fill:#ebebeb;"/><path d="M249.18,164.766c0,-2.563 -2.081,-4.644 -4.644,-4.644l-9.288,0c-2.563,0 -4.643,2.081 -4.643,4.644l0,70.868c0,2.563 2.08,4.644 4.643,4.644l9.288,0c2.563,0 4.644,-2.081 4.644,-4.644l0,-70.868Z" style="fill:#d6d6d6;"/><path d="M362.356,173.017c0,-2.668 -2.166,-4.834 -4.834,-4.834l-10.148,0c-2.667,0 -4.833,2.166 -4.833,4.834l0,9.667c0,2.668 2.166,4.834 4.833,4.834l10.148,0c2.668,0 4.834,-2.166 4.834,-4.834l0,-9.667Z" style="fill:#d6d6d6;"/><ellipse cx="300.947" cy="200.679" rx="32.883" ry="32.062" style="fill:#d6d6d6;"/></svg>